<svg xmlns="http://www.w3.org/2000/svg" viewBox="0 0 260 280" width="260" height="280">
  <!-- IvTech Solutions — Logo Final : Tricolor Shield -->
  <!-- Version : Verticale / Empilée — Couleur -->

  <g transform="translate(55, 5)">
    <polygon points="75,2 138,32 138,112 75,142 12,112 12,32"
             fill="#1B3A5C" fill-opacity="0.08" stroke="#1B3A5C" stroke-width="1.8" stroke-opacity="0.25"/>
    <clipPath id="hcV"><polygon points="75,2 138,32 138,112 75,142 12,112 12,32"/></clipPath>
    <g clip-path="url(#hcV)"><rect x="12" y="0" width="42" height="145" fill="#FF8C00" opacity="0.04"/><rect x="96" y="0" width="42" height="145" fill="#009E60" opacity="0.04"/></g>
    <path d="M 75 22 L 50 52 L 100 52 Z" fill="#1B3A5C" opacity="0.85"/>
    <path d="M 50 52 L 22 46 L 19 88 L 40 77 Z" fill="#FF8C00" opacity="0.75"/>
    <path d="M 100 52 L 128 46 L 131 88 L 110 77 Z" fill="#009E60" opacity="0.75"/>
    <path d="M 50 52 L 40 77 L 54 92 L 75 74 L 96 92 L 110 77 L 100 52 Z" fill="#1B3A5C" opacity="0.6"/>
    <path d="M 67 74 L 63 102 L 60 122 L 67 130 L 75 122 L 83 130 L 90 122 L 87 102 L 83 74 Z" fill="#1B3A5C" opacity="0.5"/>
    <circle cx="62" cy="62" r="4.5" fill="#FFFFFF"/><circle cx="62" cy="62" r="2.8" fill="#2E86DE"/>
    <circle cx="88" cy="62" r="4.5" fill="#FFFFFF"/><circle cx="88" cy="62" r="2.8" fill="#2E86DE"/>
    <!-- Left tusk "I" — curved, orange -->
    <path d="M 46 87 C 34 100, 26 114, 30 132" fill="none" stroke="#FF8C00" stroke-width="4.8" stroke-linecap="round"/>
    <!-- Right tusk "T" — curved + crossbar, green -->
    <path d="M 104 87 C 116 100, 124 114, 120 132" fill="none" stroke="#009E60" stroke-width="4.8" stroke-linecap="round"/>
    <line x1="96" y1="87" x2="124" y2="87" stroke="#009E60" stroke-width="3.2" stroke-linecap="round"/>
    <circle cx="75" cy="36" r="3" fill="#FFFFFF" opacity="0.9"/><circle cx="75" cy="36" r="1.5" fill="#2E86DE" opacity="0.7"/>
    <circle cx="28" cy="58" r="1.8" fill="#FFFFFF" opacity="0.4"/>
    <circle cx="122" cy="58" r="1.8" fill="#FFFFFF" opacity="0.4"/>
  </g>

  <!-- Text centered below -->
  <text x="130" y="185" font-family="'Montserrat', sans-serif" font-size="42" font-weight="700" text-anchor="middle" letter-spacing="1">
    <tspan fill="#FF8C00">I</tspan><tspan fill="#1B3A5C">vTech</tspan>
  </text>
  <!-- Tricolor line -->
  <line x1="30" y1="192" x2="100" y2="192" stroke="#FF8C00" stroke-width="1.5"/>
  <line x1="100" y1="192" x2="165" y2="192" stroke="#FFFFFF" stroke-width="1.5"/>
  <line x1="165" y1="192" x2="230" y2="192" stroke="#009E60" stroke-width="1.5"/>
  <text x="130" y="215" font-family="'Montserrat', sans-serif" font-size="16" font-weight="300" fill="#2C3E50" text-anchor="middle" letter-spacing="7">SOLUTIONS</text>
</svg>